<svg width="166" height="48" viewBox="0 0 166 48" fill="none" xmlns="http://www.w3.org/2000/svg">
<g opacity="0.9">
<circle cx="22" cy="24.2499" r="20.5" stroke="white" stroke-width="3"/>
<path d="M30.1317 32.3817C25.9923 36.5211 21.3028 39.2233 17.1264 40.2972C12.9123 41.3809 9.51572 40.7571 7.50431 38.7457C5.4929 36.7343 4.86911 33.3376 5.95274 29.1235C7.02666 24.9472 9.72888 20.2577 13.8683 16.1183C18.0077 11.9789 22.6972 9.27665 26.8736 8.20273C31.0877 7.1191 34.4843 7.74289 36.4957 9.7543C38.5071 11.7657 39.1309 15.1623 38.0473 19.3764C36.9733 23.5528 34.2711 28.2423 30.1317 32.3817Z" stroke="white" stroke-width="3"/>
<path d="M30.1315 16.1182C34.2709 20.2576 36.9731 24.9471 38.0471 29.1235C39.1307 33.3376 38.5069 36.7342 36.4955 38.7456C34.4841 40.757 31.0875 41.3808 26.8734 40.2972C22.697 39.2233 18.0075 36.5211 13.8681 32.3817C9.72868 28.2423 7.02647 23.5528 5.95255 19.3764C4.86892 15.1623 5.49271 11.7657 7.50412 9.75426C9.51553 7.74285 12.9122 7.11906 17.1262 8.20269C21.3026 9.27661 25.9921 11.9788 30.1315 16.1182Z" stroke="white" stroke-width="3"/>
<path d="M62.85 34.24C67.56 34.24 70.74 31.78 70.74 27.85C70.74 19.54 59.7 23.08 59.7 18.7C59.7 17.47 60.81 16.63 62.58 16.63C64.59 16.63 65.85 17.71 66 19.36H70.29C70.17 15.37 67.11 12.76 62.58 12.76C58.32 12.76 55.32 15.22 55.32 18.7C55.32 26.95 66.21 23.8 66.21 27.91C66.21 29.5 64.86 30.34 62.85 30.34C60.63 30.34 59.22 28.99 59.04 26.86H54.72C54.9 31.33 58.08 34.24 62.85 34.24Z" fill="white"/>
<path d="M71.7602 40.12H75.9302V32.65C76.7402 33.67 78.2102 34.24 79.9202 34.24C84.2702 34.24 87.2102 31.15 87.2102 26.44C87.2102 21.73 84.5102 18.64 80.2802 18.64C78.3302 18.64 76.8302 19.36 75.9302 20.53V18.88H71.7602V40.12ZM79.4102 30.64C77.1602 30.64 75.6902 28.96 75.6902 26.44C75.6902 23.89 77.1602 22.21 79.4102 22.21C81.6002 22.21 83.1002 23.89 83.1002 26.44C83.1002 28.96 81.6002 30.64 79.4102 30.64Z" fill="white"/>
<path d="M88.2192 34H92.3892V25.72C92.3892 23.77 93.6792 22.36 95.5092 22.36C97.2492 22.36 98.4492 23.68 98.4492 25.51V34H102.619V24.58C102.619 21.1 100.399 18.64 97.0092 18.64C94.9092 18.64 93.2592 19.51 92.3892 20.98V12.31H88.2192V34Z" fill="white"/>
<path d="M114.285 28.87C113.955 30.16 112.845 30.82 111.165 30.82C109.065 30.82 107.715 29.5 107.415 27.37H118.275C118.305 27.04 118.335 26.59 118.335 26.02C118.335 22.57 116.205 18.64 110.865 18.64C105.735 18.64 103.395 22.57 103.395 26.41C103.395 30.22 106.035 34.24 111.165 34.24C114.885 34.24 117.765 32.14 118.365 28.87H114.285ZM110.865 21.7C112.875 21.7 114.045 23.05 114.165 24.73H107.475C107.835 22.63 108.975 21.7 110.865 21.7Z" fill="white"/>
<path d="M129.271 22.36V18.88H127.119C125.289 18.88 124.149 19.51 123.339 21.4V18.88H119.139V34H123.339V26.65C123.339 24.07 124.269 22.36 126.339 22.36H129.271Z" fill="white"/>
<path d="M143.671 18.88H139.471V27.16C139.471 29.08 138.181 30.52 136.351 30.52C134.641 30.52 133.441 29.2 133.441 27.37V18.88H129.271V28.3C129.271 31.75 131.491 34.24 134.881 34.24C136.951 34.24 138.631 33.34 139.471 31.9V34H143.671V18.88Z" fill="white"/>
<path d="M145.471 34H149.641V12.31H145.471V34Z" fill="white"/>
<path d="M161.546 28.87C161.216 30.16 160.106 30.82 158.426 30.82C156.326 30.82 154.976 29.5 154.676 27.37H165.536C165.566 27.04 165.596 26.59 165.596 26.02C165.596 22.57 163.466 18.64 158.126 18.64C152.996 18.64 150.656 22.57 150.656 26.41C150.656 30.22 153.296 34.24 158.426 34.24C162.146 34.24 165.026 32.14 165.626 28.87H161.546ZM158.126 21.7C160.136 21.7 161.306 23.05 161.426 24.73H154.736C155.096 22.63 156.236 21.7 158.126 21.7Z" fill="white"/>
</g>
</svg>
