<svg width="198" height="48" viewBox="0 0 198 48" fill="none" xmlns="http://www.w3.org/2000/svg">
<g opacity="0.9">
<path opacity="0.8" d="M36.3066 11.1631C35.8743 10.7309 35.4421 10.2987 35.0099 9.86648C33.7132 8.48337 32.3301 7.10027 30.6012 6.23583C28.613 5.1985 26.4519 5.45783 24.2908 5.45783C21.006 5.45783 12.7938 5.45783 7.95291 5.45783L11.2378 9.86648C17.2024 9.86648 26.5384 9.86648 30.8606 9.86648C32.6759 9.86648 34.2319 10.2123 35.7014 11.1631C35.9608 11.2496 36.2201 11.2496 36.3066 11.1631Z" fill="white"/>
<path opacity="0.9" d="M39.9372 18.2516C39.505 17.8194 39.0727 17.3872 38.6405 16.955C37.3439 15.5719 35.9608 14.1888 34.2319 13.3243C32.2437 12.287 30.0826 12.5463 27.9215 12.5463C25.0688 12.5463 18.2397 12.5463 13.3989 12.5463L16.6837 16.955C22.5619 16.955 30.6012 16.955 34.5777 16.955C36.393 16.955 37.949 17.3007 39.4185 18.2516C39.5914 18.3381 39.7643 18.3381 39.9372 18.2516Z" fill="white"/>
<path d="M44 25.1669C43.5678 24.7347 43.1356 24.3025 42.7034 23.8703C41.4067 22.4872 40.0236 21.104 38.2947 20.2396C36.3065 19.2023 34.1454 19.4616 31.9843 19.4616C29.3045 19.4616 23.4264 19.4616 18.6719 19.4616L21.9568 23.8703C27.6621 23.8703 34.9234 23.8703 38.5541 23.8703C40.3694 23.8703 41.9254 24.216 43.3949 25.1669C43.6542 25.2534 43.8271 25.3398 44 25.1669Z" fill="white"/>
<path opacity="0.8" d="M7.60715 36.8369C8.03937 37.2691 8.47159 37.7013 8.90381 38.1335C10.2005 39.5166 11.5836 40.8997 13.3124 41.7642C15.3007 42.8015 17.4618 42.5422 19.6229 42.5422H35.9608L32.6759 38.1335C26.7113 38.1335 17.3753 38.1335 13.0531 38.1335C11.2378 38.1335 9.6818 37.7878 8.21225 36.8369C7.95292 36.7504 7.78004 36.7504 7.60715 36.8369Z" fill="white"/>
<path opacity="0.9" d="M3.97646 29.7487C4.40868 30.1809 4.8409 30.6131 5.27312 31.0454C6.56978 32.4285 7.95287 33.8116 9.68175 34.676C11.67 35.7133 13.8311 35.454 15.9922 35.454H30.5148L27.2299 31.0454C21.3517 31.0454 13.3124 31.0454 9.33598 31.0454C7.52066 31.0454 5.96466 30.6996 4.49511 29.7487C4.32222 29.6623 4.14934 29.6623 3.97646 29.7487Z" fill="white"/>
<path d="M0 22.7465C0.43222 23.1787 0.86444 23.6109 1.29666 24.0431C2.59332 25.4262 3.97643 26.8094 5.70531 27.6738C7.69352 28.7111 9.85461 28.4518 12.0157 28.4518H25.3281L22.0432 24.0431C16.3379 24.0431 9.07662 24.0431 5.44598 24.0431C3.63065 24.0431 2.07465 23.6974 0.605106 22.7465C0.345773 22.66 0.172888 22.66 0 22.7465Z" fill="white"/>
<path d="M53.932 14.008V34H58.328V25.74H66.7V22.324H58.328V17.704H67.988V14.008H53.932Z" fill="white"/>
<path d="M79.0137 25.208H72.5457C72.5643 24.928 72.6203 24.6107 72.7137 24.256C72.8257 23.9013 73.003 23.5653 73.2457 23.248C73.507 22.9307 73.843 22.6693 74.2537 22.464C74.683 22.24 75.215 22.128 75.8497 22.128C76.8203 22.128 77.539 22.3893 78.0057 22.912C78.491 23.4347 78.827 24.2 79.0137 25.208ZM72.5457 27.728H82.9897C83.0643 26.608 82.971 25.5347 82.7097 24.508C82.4483 23.4813 82.019 22.5667 81.4217 21.764C80.843 20.9613 80.0963 20.3267 79.1817 19.86C78.267 19.3747 77.1937 19.132 75.9617 19.132C74.8603 19.132 73.8523 19.328 72.9377 19.72C72.0417 20.112 71.267 20.6533 70.6137 21.344C69.9603 22.016 69.4563 22.8187 69.1017 23.752C68.747 24.6853 68.5697 25.6933 68.5697 26.776C68.5697 27.896 68.7377 28.9227 69.0737 29.856C69.4283 30.7893 69.923 31.592 70.5577 32.264C71.1923 32.936 71.967 33.4587 72.8817 33.832C73.7963 34.1867 74.823 34.364 75.9617 34.364C77.6043 34.364 79.0043 33.9907 80.1617 33.244C81.319 32.4973 82.1777 31.256 82.7377 29.52H79.2377C79.107 29.968 78.7523 30.3973 78.1737 30.808C77.595 31.2 76.9043 31.396 76.1017 31.396C74.9817 31.396 74.123 31.1067 73.5257 30.528C72.9283 29.9493 72.6017 29.016 72.5457 27.728Z" fill="white"/>
<path d="M84.3398 23.976C84.3958 23.0427 84.6291 22.268 85.0398 21.652C85.4505 21.036 85.9731 20.5413 86.6078 20.168C87.2425 19.7947 87.9518 19.5333 88.7358 19.384C89.5385 19.216 90.3411 19.132 91.1438 19.132C91.8718 19.132 92.6091 19.188 93.3558 19.3C94.1025 19.3933 94.7838 19.5893 95.3998 19.888C96.0158 20.1867 96.5198 20.6067 96.9118 21.148C97.3038 21.6707 97.4998 22.3707 97.4998 23.248V30.78C97.4998 31.4333 97.5371 32.0587 97.6118 32.656C97.6865 33.2533 97.8171 33.7013 98.0038 34H93.9718C93.8971 33.776 93.8318 33.552 93.7758 33.328C93.7385 33.0853 93.7105 32.8427 93.6918 32.6C93.0571 33.2533 92.3105 33.7107 91.4518 33.972C90.5931 34.2333 89.7158 34.364 88.8198 34.364C88.1291 34.364 87.4851 34.28 86.8878 34.112C86.2905 33.944 85.7678 33.6827 85.3198 33.328C84.8718 32.9733 84.5171 32.5253 84.2558 31.984C84.0131 31.4427 83.8918 30.7987 83.8918 30.052C83.8918 29.2307 84.0318 28.5587 84.3118 28.036C84.6105 27.4947 84.9838 27.0653 85.4318 26.748C85.8985 26.4307 86.4211 26.1973 86.9998 26.048C87.5971 25.88 88.1945 25.7493 88.7918 25.656C89.3891 25.5627 89.9771 25.488 90.5558 25.432C91.1345 25.376 91.6478 25.292 92.0958 25.18C92.5438 25.068 92.8985 24.9093 93.1598 24.704C93.4211 24.48 93.5425 24.1627 93.5238 23.752C93.5238 23.3227 93.4491 22.9867 93.2998 22.744C93.1691 22.4827 92.9825 22.2867 92.7398 22.156C92.5158 22.0067 92.2451 21.9133 91.9278 21.876C91.6291 21.82 91.3025 21.792 90.9478 21.792C90.1638 21.792 89.5478 21.96 89.0998 22.296C88.6518 22.632 88.3905 23.192 88.3158 23.976H84.3398ZM93.5238 26.916C93.3558 27.0653 93.1411 27.1867 92.8798 27.28C92.6371 27.3547 92.3665 27.42 92.0678 27.476C91.7878 27.532 91.4891 27.5787 91.1718 27.616C90.8545 27.6533 90.5371 27.7 90.2198 27.756C89.9211 27.812 89.6225 27.8867 89.3238 27.98C89.0438 28.0733 88.7918 28.204 88.5678 28.372C88.3625 28.5213 88.1945 28.7173 88.0638 28.96C87.9331 29.2027 87.8678 29.5107 87.8678 29.884C87.8678 30.2387 87.9331 30.5373 88.0638 30.78C88.1945 31.0227 88.3718 31.2187 88.5958 31.368C88.8198 31.4987 89.0811 31.592 89.3798 31.648C89.6785 31.704 89.9865 31.732 90.3038 31.732C91.0878 31.732 91.6945 31.6013 92.1238 31.34C92.5531 31.0787 92.8705 30.7707 93.0758 30.416C93.2811 30.0427 93.4025 29.6693 93.4398 29.296C93.4958 28.9227 93.5238 28.624 93.5238 28.4V26.916Z" fill="white"/>
<path d="M104.786 19.524V15.184H100.81V19.524H98.4019V22.184H100.81V30.724C100.81 31.452 100.931 32.04 101.174 32.488C101.417 32.936 101.743 33.2813 102.154 33.524C102.583 33.7667 103.069 33.9253 103.61 34C104.17 34.0933 104.758 34.14 105.374 34.14C105.766 34.14 106.167 34.1307 106.578 34.112C106.989 34.0933 107.362 34.056 107.698 34V30.92C107.511 30.9573 107.315 30.9853 107.11 31.004C106.905 31.0227 106.69 31.032 106.466 31.032C105.794 31.032 105.346 30.92 105.122 30.696C104.898 30.472 104.786 30.024 104.786 29.352V22.184H107.698V19.524H104.786Z" fill="white"/>
<path d="M108.75 14.008V34H112.726V26.412C112.726 24.9373 112.968 23.8827 113.454 23.248C113.939 22.5947 114.723 22.268 115.806 22.268C116.758 22.268 117.42 22.5667 117.794 23.164C118.167 23.7427 118.354 24.6293 118.354 25.824V34H122.33V25.096C122.33 24.2 122.246 23.388 122.078 22.66C121.928 21.9133 121.658 21.288 121.266 20.784C120.874 20.2613 120.332 19.86 119.642 19.58C118.97 19.2813 118.102 19.132 117.038 19.132C116.291 19.132 115.526 19.328 114.742 19.72C113.958 20.0933 113.314 20.7 112.81 21.54H112.726V14.008H108.75Z" fill="white"/>
<path d="M134.251 25.208H127.783C127.802 24.928 127.858 24.6107 127.951 24.256C128.063 23.9013 128.241 23.5653 128.483 23.248C128.745 22.9307 129.081 22.6693 129.491 22.464C129.921 22.24 130.453 22.128 131.087 22.128C132.058 22.128 132.777 22.3893 133.243 22.912C133.729 23.4347 134.065 24.2 134.251 25.208ZM127.783 27.728H138.227C138.302 26.608 138.209 25.5347 137.947 24.508C137.686 23.4813 137.257 22.5667 136.659 21.764C136.081 20.9613 135.334 20.3267 134.419 19.86C133.505 19.3747 132.431 19.132 131.199 19.132C130.098 19.132 129.09 19.328 128.175 19.72C127.279 20.112 126.505 20.6533 125.851 21.344C125.198 22.016 124.694 22.8187 124.339 23.752C123.985 24.6853 123.807 25.6933 123.807 26.776C123.807 27.896 123.975 28.9227 124.311 29.856C124.666 30.7893 125.161 31.592 125.795 32.264C126.43 32.936 127.205 33.4587 128.119 33.832C129.034 34.1867 130.061 34.364 131.199 34.364C132.842 34.364 134.242 33.9907 135.399 33.244C136.557 32.4973 137.415 31.256 137.975 29.52H134.475C134.345 29.968 133.99 30.3973 133.411 30.808C132.833 31.2 132.142 31.396 131.339 31.396C130.219 31.396 129.361 31.1067 128.763 30.528C128.166 29.9493 127.839 29.016 127.783 27.728Z" fill="white"/>
<path d="M139.745 19.524V34H143.721V27.476C143.721 26.8227 143.787 26.216 143.917 25.656C144.048 25.096 144.263 24.6107 144.561 24.2C144.879 23.7707 145.289 23.4347 145.793 23.192C146.297 22.9493 146.913 22.828 147.641 22.828C147.884 22.828 148.136 22.8467 148.397 22.884C148.659 22.9027 148.883 22.9307 149.069 22.968V19.272C148.752 19.1787 148.463 19.132 148.201 19.132C147.697 19.132 147.212 19.2067 146.745 19.356C146.279 19.5053 145.84 19.72 145.429 20C145.019 20.2613 144.655 20.588 144.337 20.98C144.02 21.3533 143.768 21.764 143.581 22.212H143.525V19.524H139.745Z" fill="white"/>
<path d="M154.604 30.304V17.704H157.74C158.823 17.704 159.728 17.8627 160.456 18.18C161.203 18.4787 161.8 18.9173 162.248 19.496C162.696 20.0747 163.014 20.7747 163.2 21.596C163.406 22.3987 163.508 23.304 163.508 24.312C163.508 25.4133 163.368 26.3467 163.088 27.112C162.808 27.8773 162.435 28.5027 161.968 28.988C161.502 29.4547 160.97 29.7907 160.372 29.996C159.775 30.2013 159.159 30.304 158.524 30.304H154.604ZM150.208 14.008V34H158.832C160.363 34 161.688 33.748 162.808 33.244C163.947 32.7213 164.89 32.012 165.636 31.116C166.402 30.22 166.971 29.156 167.344 27.924C167.718 26.692 167.904 25.348 167.904 23.892C167.904 22.2307 167.671 20.784 167.204 19.552C166.756 18.32 166.122 17.2933 165.3 16.472C164.498 15.6507 163.536 15.0347 162.416 14.624C161.315 14.2133 160.12 14.008 158.832 14.008H150.208Z" fill="white"/>
<path d="M179.446 25.208H172.978C172.997 24.928 173.053 24.6107 173.146 24.256C173.258 23.9013 173.435 23.5653 173.678 23.248C173.939 22.9307 174.275 22.6693 174.686 22.464C175.116 22.24 175.647 22.128 176.282 22.128C177.253 22.128 177.971 22.3893 178.438 22.912C178.924 23.4347 179.259 24.2 179.446 25.208ZM172.978 27.728H183.422C183.497 26.608 183.403 25.5347 183.142 24.508C182.881 23.4813 182.451 22.5667 181.854 21.764C181.275 20.9613 180.529 20.3267 179.614 19.86C178.7 19.3747 177.626 19.132 176.394 19.132C175.293 19.132 174.285 19.328 173.37 19.72C172.474 20.112 171.7 20.6533 171.046 21.344C170.393 22.016 169.889 22.8187 169.534 23.752C169.179 24.6853 169.002 25.6933 169.002 26.776C169.002 27.896 169.17 28.9227 169.506 29.856C169.861 30.7893 170.355 31.592 170.99 32.264C171.625 32.936 172.399 33.4587 173.314 33.832C174.229 34.1867 175.256 34.364 176.394 34.364C178.037 34.364 179.437 33.9907 180.594 33.244C181.752 32.4973 182.61 31.256 183.17 29.52H179.67C179.539 29.968 179.185 30.3973 178.606 30.808C178.027 31.2 177.337 31.396 176.534 31.396C175.414 31.396 174.555 31.1067 173.958 30.528C173.361 29.9493 173.034 29.016 172.978 27.728Z" fill="white"/>
<path d="M192.948 34L197.848 19.524H193.9L190.848 29.408H190.792L187.74 19.524H183.568L188.524 34H192.948Z" fill="white"/>
</g>
</svg>
