<svg width="56" height="56" viewBox="0 0 56 56" fill="none" xmlns="http://www.w3.org/2000/svg">
<rect x="4" y="4" width="48" height="48" rx="24" fill="#E0F2FE"/>
<rect x="4" y="4" width="48" height="48" rx="24" stroke="#F0F9FF" stroke-width="8"/>
<path d="M30 23H32.3373C32.5818 23 32.7041 23 32.8192 23.0276C32.9213 23.0521 33.0188 23.0925 33.1083 23.1474C33.2092 23.2092 33.2957 23.2957 33.4686 23.4686L37.5314 27.5314C37.7043 27.7043 37.7908 27.7908 37.8526 27.8917C37.9075 27.9812 37.9479 28.0787 37.9724 28.1808C38 28.2959 38 28.4182 38 28.6627V31.5C38 31.9659 38 32.1989 37.9239 32.3827C37.8224 32.6277 37.6277 32.8224 37.3827 32.9239C37.1989 33 36.9659 33 36.5 33M31.5 33H30M30 33V23.2C30 22.0799 30 21.5198 29.782 21.092C29.5903 20.7157 29.2843 20.4097 28.908 20.218C28.4802 20 27.9201 20 26.8 20H21.2C20.0799 20 19.5198 20 19.092 20.218C18.7157 20.4097 18.4097 20.7157 18.218 21.092C18 21.5198 18 22.0799 18 23.2V31C18 32.1046 18.8954 33 20 33M30 33H26M26 33C26 34.6569 24.6569 36 23 36C21.3431 36 20 34.6569 20 33M26 33C26 31.3431 24.6569 30 23 30C21.3431 30 20 31.3431 20 33M36.5 33.5C36.5 34.8807 35.3807 36 34 36C32.6193 36 31.5 34.8807 31.5 33.5C31.5 32.1193 32.6193 31 34 31C35.3807 31 36.5 32.1193 36.5 33.5Z" stroke="#0086C9" stroke-width="2" stroke-linecap="round" stroke-linejoin="round"/>
</svg>
