<svg width="56" height="56" viewBox="0 0 56 56" fill="none" xmlns="http://www.w3.org/2000/svg">
<rect x="4" y="4" width="48" height="48" rx="24" fill="#E0F2FE"/>
<rect x="4" y="4" width="48" height="48" rx="24" stroke="#F0F9FF" stroke-width="8"/>
<path d="M31 37V31.6C31 31.0399 31 30.7599 30.891 30.546C30.7951 30.3578 30.6422 30.2049 30.454 30.109C30.2401 30 29.9601 30 29.4 30H26.6C26.0399 30 25.7599 30 25.546 30.109C25.3578 30.2049 25.2049 30.3578 25.109 30.546C25 30.7599 25 31.0399 25 31.6V37M19 23C19 24.6569 20.3431 26 22 26C23.6569 26 25 24.6569 25 23C25 24.6569 26.3431 26 28 26C29.6569 26 31 24.6569 31 23C31 24.6569 32.3431 26 34 26C35.6569 26 37 24.6569 37 23M22.2 37H33.8C34.9201 37 35.4802 37 35.908 36.782C36.2843 36.5903 36.5903 36.2843 36.782 35.908C37 35.4802 37 34.9201 37 33.8V22.2C37 21.0799 37 20.5198 36.782 20.092C36.5903 19.7157 36.2843 19.4097 35.908 19.218C35.4802 19 34.9201 19 33.8 19H22.2C21.0799 19 20.5198 19 20.092 19.218C19.7157 19.4097 19.4097 19.7157 19.218 20.092C19 20.5198 19 21.0799 19 22.2V33.8C19 34.9201 19 35.4802 19.218 35.908C19.4097 36.2843 19.7157 36.5903 20.092 36.782C20.5198 37 21.0799 37 22.2 37Z" stroke="#0086C9" stroke-width="2" stroke-linecap="round" stroke-linejoin="round"/>
</svg>
